<svg viewBox="0 0 37 37" width="100%" height="100%" fill="rgba(255, 255, 255, 0)" xmlns="http://www.w3.org/2000/svg"><rect fill="rgba(255, 255, 255, 0)" width="100%" height="100%"></rect><path d="M0 0v1h7v-1zM10 0v1h1v-1zM16 0v1h2v-1zM20 0v1h1v-1zM22 0v1h1v-1zM25 0v1h3v-1zM30 0v1h7v-1zM0 1v1h1v-1zM6 1v1h1v-1zM8 1v1h6v-1zM15 1v1h4v-1zM22 1v1h1v-1zM24 1v1h2v-1zM28 1v1h1v-1zM30 1v1h1v-1zM36 1v1h1v-1zM0 2v1h1v-1zM2 2v1h3v-1zM6 2v1h1v-1zM10 2v1h2v-1zM14 2v1h1v-1zM18 2v1h1v-1zM20 2v1h2v-1zM27 2v1h1v-1zM30 2v1h1v-1zM32 2v1h3v-1zM36 2v1h1v-1zM0 3v1h1v-1zM2 3v1h3v-1zM6 3v1h1v-1zM10 3v1h1v-1zM15 3v1h1v-1zM17 3v1h1v-1zM20 3v1h3v-1zM24 3v1h3v-1zM28 3v1h1v-1zM30 3v1h1v-1zM32 3v1h3v-1zM36 3v1h1v-1zM0 4v1h1v-1zM2 4v1h3v-1zM6 4v1h1v-1zM9 4v1h1v-1zM15 4v1h4v-1zM20 4v1h2v-1zM26 4v1h2v-1zM30 4v1h1v-1zM32 4v1h3v-1zM36 4v1h1v-1zM0 5v1h1v-1zM6 5v1h1v-1zM8 5v1h1v-1zM10 5v1h2v-1zM14 5v1h2v-1zM18 5v1h1v-1zM20 5v1h1v-1zM22 5v1h1v-1zM24 5v1h1v-1zM28 5v1h1v-1zM30 5v1h1v-1zM36 5v1h1v-1zM0 6v1h7v-1zM8 6v1h1v-1zM10 6v1h1v-1zM12 6v1h1v-1zM14 6v1h1v-1zM16 6v1h1v-1zM18 6v1h1v-1zM20 6v1h1v-1zM22 6v1h1v-1zM24 6v1h1v-1zM26 6v1h1v-1zM28 6v1h1v-1zM30 6v1h7v-1zM8 7v1h1v-1zM10 7v1h1v-1zM13 7v1h2v-1zM16 7v1h2v-1zM19 7v1h2v-1zM23 7v1h3v-1zM4 8v1h4v-1zM12 8v1h1v-1zM16 8v1h1v-1zM18 8v1h1v-1zM20 8v1h2v-1zM24 8v1h2v-1zM27 8v1h2v-1zM30 8v1h2v-1zM35 8v1h1v-1zM0 9v1h2v-1zM3 9v1h3v-1zM12 9v1h2v-1zM15 9v1h2v-1zM19 9v1h1v-1zM21 9v1h2v-1zM24 9v1h1v-1zM26 9v1h1v-1zM30 9v1h1v-1zM35 9v1h1v-1zM2 10v1h2v-1zM6 10v1h4v-1zM11 10v1h3v-1zM17 10v1h1v-1zM19 10v1h1v-1zM22 10v1h1v-1zM25 10v1h3v-1zM29 10v1h1v-1zM32 10v1h1v-1zM34 10v1h1v-1zM1 11v1h3v-1zM11 11v1h1v-1zM13 11v1h2v-1zM16 11v1h2v-1zM22 11v1h1v-1zM24 11v1h1v-1zM26 11v1h4v-1zM31 11v1h4v-1zM2 12v1h1v-1zM5 12v1h2v-1zM8 12v1h1v-1zM10 12v1h2v-1zM20 12v1h3v-1zM24 12v1h1v-1zM28 12v1h4v-1zM33 12v1h1v-1zM36 12v1h1v-1zM0 13v1h1v-1zM2 13v1h1v-1zM4 13v1h1v-1zM7 13v1h2v-1zM14 13v1h1v-1zM17 13v1h1v-1zM21 13v1h1v-1zM23 13v1h2v-1zM26 13v1h4v-1zM32 13v1h1v-1zM34 13v1h1v-1zM1 14v1h2v-1zM4 14v1h1v-1zM6 14v1h1v-1zM8 14v1h4v-1zM14 14v1h2v-1zM17 14v1h3v-1zM22 14v1h6v-1zM30 14v1h1v-1zM33 14v1h2v-1zM0 15v1h1v-1zM2 15v1h1v-1zM4 15v1h1v-1zM7 15v1h1v-1zM10 15v1h1v-1zM16 15v1h2v-1zM20 15v1h2v-1zM24 15v1h1v-1zM26 15v1h7v-1zM34 15v1h2v-1zM1 16v1h1v-1zM4 16v1h3v-1zM8 16v1h1v-1zM11 16v1h6v-1zM18 16v1h3v-1zM22 16v1h1v-1zM24 16v1h1v-1zM29 16v1h3v-1zM33 16v1h4v-1zM0 17v1h5v-1zM7 17v1h3v-1zM11 17v1h1v-1zM14 17v1h1v-1zM19 17v1h4v-1zM26 17v1h3v-1zM31 17v1h2v-1zM34 17v1h1v-1zM1 18v1h2v-1zM4 18v1h3v-1zM8 18v1h4v-1zM18 18v1h3v-1zM22 18v1h3v-1zM27 18v1h1v-1zM29 18v1h2v-1zM32 18v1h3v-1zM0 19v1h1v-1zM5 19v1h1v-1zM7 19v1h1v-1zM9 19v1h1v-1zM13 19v1h1v-1zM15 19v1h2v-1zM19 19v1h2v-1zM23 19v1h1v-1zM26 19v1h1v-1zM34 19v1h2v-1zM2 20v1h1v-1zM5 20v1h3v-1zM9 20v1h1v-1zM11 20v1h3v-1zM17 20v1h1v-1zM19 20v1h3v-1zM23 20v1h1v-1zM27 20v1h1v-1zM29 20v1h2v-1zM33 20v1h2v-1zM36 20v1h1v-1zM0 21v1h2v-1zM3 21v1h2v-1zM8 21v1h1v-1zM11 21v1h1v-1zM13 21v1h2v-1zM17 21v1h1v-1zM19 21v1h9v-1zM32 21v1h1v-1zM36 21v1h1v-1zM0 22v1h1v-1zM3 22v1h2v-1zM6 22v1h1v-1zM10 22v1h3v-1zM15 22v1h1v-1zM17 22v1h1v-1zM19 22v1h1v-1zM23 22v1h2v-1zM27 22v1h3v-1zM33 22v1h2v-1zM36 22v1h1v-1zM4 23v1h1v-1zM7 23v1h1v-1zM9 23v1h1v-1zM12 23v1h1v-1zM16 23v1h1v-1zM20 23v1h3v-1zM26 23v1h1v-1zM28 23v1h1v-1zM31 23v1h1v-1zM34 23v1h3v-1zM2 24v1h1v-1zM4 24v1h1v-1zM6 24v1h3v-1zM13 24v1h1v-1zM16 24v1h1v-1zM18 24v1h2v-1zM23 24v1h1v-1zM25 24v1h3v-1zM30 24v1h1v-1zM32 24v1h4v-1zM0 25v1h1v-1zM2 25v1h2v-1zM5 25v1h1v-1zM7 25v1h4v-1zM16 25v1h1v-1zM18 25v1h3v-1zM22 25v1h1v-1zM24 25v1h2v-1zM28 25v1h7v-1zM2 26v1h2v-1zM5 26v1h2v-1zM9 26v1h3v-1zM13 26v1h1v-1zM17 26v1h2v-1zM22 26v1h5v-1zM28 26v1h2v-1zM31 26v1h1v-1zM33 26v1h1v-1zM2 27v1h2v-1zM8 27v1h1v-1zM11 27v1h1v-1zM13 27v1h5v-1zM23 27v1h1v-1zM26 27v1h1v-1zM30 27v1h1v-1zM35 27v1h2v-1zM0 28v1h4v-1zM6 28v1h1v-1zM8 28v1h1v-1zM11 28v1h3v-1zM15 28v1h2v-1zM18 28v1h3v-1zM24 28v1h1v-1zM27 28v1h6v-1zM8 29v1h1v-1zM11 29v1h2v-1zM14 29v1h4v-1zM19 29v1h2v-1zM22 29v1h1v-1zM24 29v1h1v-1zM26 29v1h1v-1zM28 29v1h1v-1zM32 29v1h2v-1zM35 29v1h1v-1zM0 30v1h7v-1zM8 30v1h1v-1zM10 30v1h2v-1zM14 30v1h2v-1zM18 30v1h1v-1zM20 30v1h4v-1zM25 30v1h1v-1zM28 30v1h1v-1zM30 30v1h1v-1zM32 30v1h3v-1zM0 31v1h1v-1zM6 31v1h1v-1zM8 31v1h1v-1zM11 31v1h2v-1zM22 31v1h1v-1zM24 31v1h1v-1zM28 31v1h1v-1zM32 31v1h1v-1zM34 31v1h1v-1zM0 32v1h1v-1zM2 32v1h3v-1zM6 32v1h1v-1zM8 32v1h4v-1zM15 32v1h1v-1zM17 32v1h3v-1zM21 32v1h4v-1zM28 32v1h7v-1zM0 33v1h1v-1zM2 33v1h3v-1zM6 33v1h1v-1zM9 33v1h1v-1zM11 33v1h3v-1zM16 33v1h1v-1zM18 33v1h1v-1zM21 33v1h2v-1zM26 33v1h3v-1zM30 33v1h2v-1zM33 33v1h1v-1zM0 34v1h1v-1zM2 34v1h3v-1zM6 34v1h1v-1zM9 34v1h1v-1zM11 34v1h1v-1zM18 34v1h3v-1zM22 34v1h1v-1zM25 34v1h4v-1zM30 34v1h2v-1zM34 34v1h2v-1zM0 35v1h1v-1zM6 35v1h1v-1zM9 35v1h1v-1zM11 35v1h1v-1zM14 35v1h5v-1zM22 35v1h1v-1zM24 35v1h1v-1zM26 35v1h2v-1zM29 35v1h1v-1zM34 35v1h2v-1zM0 36v1h7v-1zM9 36v1h3v-1zM15 36v1h1v-1zM17 36v1h1v-1zM19 36v1h3v-1zM23 36v1h2v-1zM27 36v1h1v-1zM29 36v1h1v-1zM31 36v1h2v-1zM34 36v1h3v-1z" fill="#000000"></path></svg>